<?xml version="1.0" encoding="UTF-8" standalone="no"?>
<!-- Created with Inkscape (http://www.inkscape.org/) -->

<svg
   width="210mm"
   height="297mm"
   viewBox="0 0 210 297"
   version="1.1"
   id="svg99189"
   inkscape:version="1.1.1 (3bf5ae0d25, 2021-09-20)"
   sodipodi:docname="favicon.svg"
   xmlns:inkscape="http://www.inkscape.org/namespaces/inkscape"
   xmlns:sodipodi="http://sodipodi.sourceforge.net/DTD/sodipodi-0.dtd"
   xmlns="http://www.w3.org/2000/svg"
   xmlns:svg="http://www.w3.org/2000/svg">
  <sodipodi:namedview
     id="namedview99191"
     pagecolor="#747474"
     bordercolor="#eeeeee"
     borderopacity="1"
     inkscape:pageshadow="0"
     inkscape:pageopacity="0"
     inkscape:pagecheckerboard="true"
     inkscape:document-units="mm"
     showgrid="false"
     units="mm"
     inkscape:zoom="0.36703143"
     inkscape:cx="0"
     inkscape:cy="208.42902"
     inkscape:window-width="1920"
     inkscape:window-height="1009"
     inkscape:window-x="-8"
     inkscape:window-y="-8"
     inkscape:window-maximized="1"
     inkscape:current-layer="g1107" />
  <defs
     id="defs99186" />
  <g
     inkscape:label="Camada 1"
     inkscape:groupmode="layer"
     id="layer1">
    <g
       id="g1107"
       transform="matrix(0.18567251,0,0,-0.18567251,15.766587,18.034119)"
       style="fill:#000000;fill-opacity:1;stroke:#000000;stroke-opacity:1">
      <path
         d="M 901.48557,-128.84005 585.43745,-491.70876 c -2.56138,-2.94156 -6.42149,-4.56172 -10.42591,-4.3434 l -493.372741,25.32497 c -13.348049,0.68943 -16.654998,18.09748 -4.389223,23.22222 l 809.420864,337.53225 c 12.25375,5.11326 23.37712,-9.04299 14.81513,-18.86733 m 74.19591,-1162.74265 -345.2575,755.88846 c -1.89999,4.2055 -1.1905,9.07746 1.88797,12.59354 l 350.88533,402.867 c 7.61199,8.74424 22.48722,3.56205 22.42712,-7.81351 l -5.63985,-1158.73239 c -0.0481,-13.1222 -18.83157,-16.8106 -24.30307,-4.8031 m -72.48832,-35.5744 -892.972434,784.00555 c -8.7784469,7.69861 -2.6335344,21.64802 9.247431,21.03903 l 547.738983,-28.12865 c 4.81011,-0.24129 9.03098,-3.05646 10.943,-7.26197 l 345.24547,-755.87696 c 5.48353,-12.019 -10.11325,-22.6477 -20.20245,-13.777 m 124.53364,-118.8114 6.8665,1408.845297 c 0.048,8.76722 -9.3557,14.673316 -17.7493,11.168726 L -75.747923,-481.57418 c -8.393638,-3.50459 -10.24553,-14.11028 -3.511379,-20.03936 L 1006.4541,-1454.8276 c 8.1171,-7.1356 21.2246,-1.6661 21.2727,8.8591"
         style="fill:#04a49c;fill-opacity:1;fill-rule:nonzero;stroke:none;stroke-width:11.7548;stroke-opacity:1"
         id="path1109" />
    </g>
  </g>
</svg>
